<?xml version="1.0" encoding="UTF-8"?>
<svg width="282px" height="89px" viewBox="0 0 282 89" version="1.1" xmlns="http://www.w3.org/2000/svg" xmlns:xlink="http://www.w3.org/1999/xlink">
    <title>logo-hov</title>
    <g id="Page-1" stroke="none" stroke-width="1" fill="none" fill-rule="evenodd">
        <g id="Artboard" transform="translate(-9.000000, -17.000000)" fill="#FFFFFF" fill-rule="nonzero">
            <g id="logo-hov" transform="translate(9.000000, 17.000000)">
                <path d="M48.42,1.10983576 C51.38,1.15983576 54.35,1.13983576 57.3,1.33983576 C57.11,12.4598358 57.28,23.5798358 57.21,34.6998358 C54.26,34.7198358 51.31,34.7198358 48.37,34.7098358 C48.38,30.0998358 48.41,25.4898358 48.35,20.8798358 C44.29,20.8798358 40.23,20.8798358 36.17,20.8798358 C36.03,25.4998358 36.17,30.1198358 36.04,34.7398358 C32.97,34.7298358 29.89,34.7198358 26.82,34.6498358 C26.83,23.5298358 26.84,12.3998358 26.82,1.26983576 C29.91,1.16983576 33,1.15983576 36.09,1.18983576 C36.11,5.40983576 36.1,9.62983576 36.09,13.8598358 C40.19,13.8698358 44.29,13.8698358 48.39,13.8598358 C48.39,9.60983576 48.35,5.35983576 48.42,1.10983576 Z" id="Path"></path>
                <path d="M171.09,1.00983576 C176.27,-1.29016424 181.94,0.769835762 186.81,2.89983576 C185.59,5.20983576 184.41,7.54983576 183.25,9.88983576 C180.31,7.75983576 175.66,6.36983576 173.27,10.0398358 C175.06,13.7698358 179.7,13.5398358 182.87,15.4198358 C190.04,18.6198358 189.49,30.4098358 182.69,33.7698358 C176.47,37.1298358 168.76,35.5798358 163.01,31.9298358 C164.13,29.4298358 165.43,27.0198358 166.84,24.6798358 C169.47,26.5198358 172.49,28.5598358 175.89,27.7698358 C178.34,27.6698358 179.71,24.0798358 177.46,22.7198358 C173.63,20.4798358 168.35,20.4198358 165.71,16.4098358 C162.52,11.0598358 165.14,3.15983576 171.09,1.00983576 Z" id="Path"></path>
                <path d="M217.4,1.69983576 C225.75,-2.32016424 236.89,1.00983576 240.98,9.50983576 C238.17,10.7998358 235.3,11.9798358 232.37,12.9598358 C230.85,10.3198358 228.43,7.50983576 225.01,8.15983576 C217.79,7.96983576 214.96,17.4698358 217.78,23.0298358 C219.78,29.1398358 231.11,29.7698358 232.04,22.7198358 C229.79,22.6998358 227.53,22.6898358 225.28,22.6898358 C225.29,20.3398358 225.29,17.9998358 225.3,15.6598358 C231.08,15.6698358 236.86,15.6498358 242.650214,15.6698358 C242.66,20.0698358 242.33,24.7798358 239.62,28.4498358 C233.41,37.5498358 218.32,38.0898358 211.34,29.6298358 C204.36,21.2098358 206.63,5.83983576 217.4,1.69983576 Z" id="Path"></path>
                <path d="M247.71,1.36983576 C251.34,1.55983576 256.45,-0.500164238 258.6,3.48983576 C263.11,9.33983576 267.67,15.1598358 272.42,20.8298358 C272.54,14.2598358 272.43,7.68983576 272.5,1.11983576 C275.53,1.21983576 278.57,1.21983576 281.61,1.08983576 C281.73,12.2998358 281.63,23.4998358 281.66,34.7098358 C278.07,34.1398358 272.97,36.4298358 270.78,32.5298358 C266.16,26.4898358 261.31,20.6198358 256.72,14.5498358 C256.66,21.2598358 256.68,27.9698358 256.71,34.6798358 C253.7,34.7598358 250.69,34.7698358 247.68,34.5298358 C247.85,23.4798358 247.8,12.4198358 247.71,1.36983576 Z" id="Path"></path>
                <path d="M0,1.16983576 C7.83,1.22983576 15.65,1.10983576 23.48,1.23983576 C23.45,3.71983576 23.44,6.19983576 23.44,8.67983576 C21.1,8.67983576 18.76,8.67983576 16.42,8.67983576 C16.4,17.3598358 16.41,26.0298358 16.42,34.6998358 C13.35,34.7298358 10.28,34.7298358 7.21,34.6998358 C7.24,26.0298358 7.23,17.3598358 7.22,8.67983576 C4.81,8.67983576 2.41,8.68983576 0,8.68983576 C0,6.18983576 0,3.67983576 0,1.16983576 Z" id="Path"></path>
                <path d="M63.81,1.24983576 C70.34,1.12983576 76.88,1.16983576 83.41,1.22983576 C83.4,3.69983576 83.4,6.17983576 83.4,8.65983576 C79.98,8.68983576 76.55,8.68983576 73.13,8.68983576 C73.12,10.4098358 73.12,12.1298358 73.11,13.8598358 C76.3,13.8598358 79.49,13.8598358 82.68,13.8498358 C82.73,16.4198358 82.75,18.9798358 82.75,21.5498358 C79.55,21.5698358 76.34,21.5698358 73.14,21.5098358 C73.13,23.3598358 73.13,25.2098358 73.12,27.0698358 C76.55,27.1298358 79.98,27.1198358 83.41,27.1498358 C83.4,29.6698358 83.4,32.1798358 83.41,34.6898358 C76.87,34.7198358 70.34,34.7798358 63.81,34.6498358 C63.82,23.5198358 63.82,12.3798358 63.81,1.24983576 Z" id="Path"></path>
                <path d="M104.5,1.20983576 C112.19,1.64983576 120.99,-0.640164238 127.52,4.66983576 C136.35,10.9798358 135.95,25.9598358 126.7,31.6998358 C120.21,36.3498358 111.91,34.2798358 104.5,34.7098358 C104.52,23.5398358 104.52,12.3698358 104.5,1.20983576 M113.39,8.58983576 C113.36,14.7898358 113.37,20.9998358 113.39,27.1998358 C116.26,26.9798358 119.53,26.9498358 121.7,24.7498358 C124.85,22.2898358 125.09,17.6998358 123.97,14.1698358 C122.35,9.96983576 117.58,8.33983576 113.39,8.58983576 Z" id="Shape"></path>
                <path d="M139.25,1.18983576 C145.69,1.18983576 152.13,1.13983576 158.57,1.22983576 C158.55,3.69983576 158.55,6.17983576 158.56,8.65983576 C155.15,8.68983576 151.75,8.68983576 148.34,8.67983576 C148.33,10.3998358 148.32,12.1298358 148.31,13.8598358 C151.58,13.8498358 154.85,13.8598358 158.12,13.8998358 C158.13,16.4198358 158.14,18.9398358 158.14,21.4598358 C154.87,21.5698358 151.59,21.5798358 148.31,21.5598358 C148.32,23.4098358 148.33,25.2598358 148.35,27.1198358 C151.75,27.1098358 155.16,27.1098358 158.57,27.1698358 C158.55,29.6698358 158.55,32.1798358 158.57,34.6798358 C152.13,34.7498358 145.68,34.7198358 139.24,34.6998358 C139.27,23.5298358 139.26,12.3598358 139.25,1.18983576 Z" id="Path"></path>
                <path d="M193.3,1.18983576 C196.32,1.15983576 199.35,1.16983576 202.38,1.27983576 C202.36,12.3998358 202.4,23.5198358 202.36,34.6398358 C199.33,34.7298358 196.31,34.7398358 193.28,34.7098358 C193.31,23.5398358 193.29,12.3598358 193.3,1.18983576 Z" id="Path"></path>
                <path d="M3.46,53.9198358 C9.9,53.9098358 16.34,53.9198358 22.78,53.9198358 C22.8,56.4698358 22.81,59.0298358 22.83,61.5798358 C19.32,61.5898358 15.81,61.5898358 12.3,61.5998358 C12.3,63.3298358 12.31,65.0498358 12.31,66.7798358 C15.55,66.7798358 18.79,66.7898358 22.03,66.8098358 C22.03,69.3198358 22.03,71.8398358 22.03,74.3598358 C18.79,74.3698358 15.54,74.3798358 12.3,74.3898358 C12.32,78.9398358 12.32,83.4798358 12.32,88.0298358 C9.34,88.0498358 6.35,88.0498358 3.38,87.9598358 C3.54,76.6098358 3.39,65.2698358 3.46,53.9198358 Z" id="Path"></path>
                <path d="M27.83,53.9298358 C30.78,53.9098358 33.72,53.9098358 36.67,53.9198358 C36.7,65.2898358 36.65,76.6598358 36.69,88.0298358 C33.73,88.0298358 30.78,88.0298358 27.83,88.0298358 C27.83,76.6598358 27.82,65.2898358 27.83,53.9298358 Z" id="Path"></path>
                <path d="M43.42,53.9198358 C49.45,54.1598358 55.62,53.2498358 61.54,54.7198358 C68.3,56.5298358 70.51,66.1098358 66,71.1398358 C64.78,72.6198358 62.89,73.2298358 61.23,74.0498358 C64.79,78.6898358 68.47,83.2498358 71.93,87.9698358 C68.19,88.0598358 64.45,88.0298358 60.71,88.0398358 C58.02,83.8398358 55.3,79.6498358 52.6,75.4598358 C52.53,79.6398358 52.54,83.8198358 52.58,87.9998358 C49.52,88.0498358 46.46,88.0398358 43.4,88.0198358 C43.43,76.6598358 43.39,65.2898358 43.42,53.9198358 M52.54,60.9198358 C52.55,63.5698358 52.55,66.2298358 52.56,68.8898358 C55.15,68.9898358 59.19,68.6098358 58.93,65.0998358 C59.35,61.4798358 55.25,60.8598358 52.54,60.9198358 Z" id="Shape"></path>
                <path d="M78.96,53.9798358 C81.89,54.0798358 85.01,53.4498358 87.81,54.2098358 C90.29,59.6898358 92.17,65.4498358 94.3,71.0798358 C97.08,65.6098358 98.83,59.6798358 101.01,53.9598358 C103.93,54.0798358 107,53.4698358 109.83,54.1998358 C112.04,65.4198358 113.67,76.7698358 115.73,88.0298358 C112.72,88.0298358 109.71,88.0298358 106.71,88.0298358 C105.81,81.7498358 104.82,75.4798358 103.95,69.1998358 C100.98,75.2998358 98.51,81.6398358 96.14,87.9998358 C95.29,88.0298358 93.6,88.0698358 92.75,88.0998358 C89.97,81.8298358 87.85,75.2998358 85.04,69.0498358 C84.13,75.3798358 83.19,81.7098358 82.24,88.0398358 C79.25,88.0298358 76.26,88.0298358 73.28,88.0298358 C75.06,76.6598358 77.29,65.3698358 78.96,53.9798358 Z" id="Path"></path>
                <path d="M124.77,53.9098358 C126.36,53.9198358 127.95,53.9298358 129.54,53.9398358 C129.54,55.7798358 129.54,57.6198358 129.55,59.4598358 C131.42,59.4898358 133.3,59.5098358 135.18,59.5398358 C135.18,61.1598358 135.18,62.7798358 135.18,64.3998358 C133.29,64.4298358 131.4,64.4498358 129.52,64.4798358 C129.54,66.2698358 129.57,68.0598358 129.6,69.8498358 C127.98,69.9798358 126.36,70.0198358 124.75,69.9898358 C124.76,68.1498358 124.79,66.3098358 124.81,64.4698358 C122.96,64.4598358 121.11,64.4398358 119.26,64.4298358 C119.27,62.7798358 119.29,61.1298358 119.3,59.4798358 C121.13,59.4798358 122.96,59.4698358 124.79,59.4698358 C124.78,57.6098358 124.78,55.7598358 124.77,53.9098358 Z" id="Path"></path>
            </g>
        </g>
    </g>
</svg>