<?xml version="1.0" encoding="UTF-8"?>
<svg width="77px" height="54px" viewBox="0 0 77 54" version="1.1" xmlns="http://www.w3.org/2000/svg" xmlns:xlink="http://www.w3.org/1999/xlink">
    <title>Group 38</title>
    <g id="Page-1" stroke="none" stroke-width="1" fill="none" fill-rule="evenodd">
        <g id="Homepage---boutique" transform="translate(-788.000000, -94.000000)" fill="#000000">
            <g id="Group-38" transform="translate(788.000000, 94.000000)">
                <g id="Screen-Shot-2021-07-20-at-2" fill-rule="nonzero">
                    <g id="Group">
                        <path d="M0.00470857208,0 C6.29093528,0 12.5800039,0 18.8690724,0 C18.8690724,2.03194037 18.8690724,4.06388074 18.8690724,6.09582111 C16.9252302,6.09866298 14.9813879,6.09582111 13.0375457,6.09866298 C13.0318619,13.3255502 13.0403876,20.5552793 13.0347038,27.7821665 C10.6645804,27.7821665 8.2944569,27.7821665 5.92433345,27.7821665 C5.91580783,20.5552793 5.9413847,13.3312339 5.91012408,6.10434673 C3.94070495,6.08729548 1.97128582,6.09866298 0.00186669744,6.09866298 C-0.000975177207,4.06388074 -0.000975177207,2.03194037 0.00470857208,0 Z" id="Path"></path>
                        <path d="M22.6715007,0.00284187464 C26.1897415,-0.00284187464 29.7108242,0.00284187464 33.229065,1.77635684e-15 C36.6421565,0.039786245 39.9870429,1.46924919 42.411162,3.85926576 C45.4832285,6.75229415 47.103097,11.1003624 46.6398714,15.3006531 C46.0999153,21.8057041 40.370696,27.5519747 33.7775468,27.7338546 C30.0802679,27.8475296 26.3744634,27.7509059 22.6715007,27.7821665 C22.6715007,18.5233389 22.6715007,9.26166946 22.6715007,0.00284187464 M29.2277055,6.10434673 C29.2248636,11.2992936 29.2191799,16.4970823 29.2305474,21.6920291 C31.3733209,21.7716016 33.6667137,21.6749779 35.5082485,20.4330787 C39.9500985,17.5713109 39.8250561,10.0062406 35.3235266,7.25814784 C33.5189362,6.09582111 31.3051159,6.02193237 29.2277055,6.10434673 Z" id="Shape"></path>
                        <path d="M50.8060597,0 C56.0379509,0 61.2698421,0 66.5017333,0.00284187464 C66.5045752,2.03478224 66.5017333,4.06388074 66.5045752,6.09582111 C63.6456493,6.09866298 60.7867234,6.09297923 57.9249556,6.10150486 C57.9192719,7.66453591 57.9192719,9.22756696 57.9249556,10.790598 C60.7895653,10.790598 63.6513331,10.7877561 66.5159427,10.790598 C66.5159427,12.8054871 66.5159427,14.8203763 66.5131008,16.8324235 C63.6513331,16.8381073 60.7895653,16.8295816 57.9277975,16.8352654 C57.9135881,20.4842324 57.9277975,24.1331995 57.9221138,27.7821665 C55.5491484,27.7850084 53.179025,27.7821665 50.8089015,27.7821665 C50.8060597,18.5233389 50.8060597,9.26166946 50.8060597,0 Z" id="Path"></path>
                        <path d="M73.0579381,0 C73.6291549,0 74.2003717,0 74.7715885,0 C74.7630629,0.730361783 74.7744304,1.46072357 74.7857979,2.19108535 C75.5047922,2.20529472 76.2266283,2.21382035 76.9484645,2.20529472 C76.9513064,2.79356277 76.9513064,3.37898895 76.9484645,3.967257 C76.2209446,3.967257 75.4962666,3.967257 74.7715885,3.97009887 C74.7715885,4.66351629 74.7715885,5.3569337 74.7715885,6.05035111 C74.2003717,6.05035111 73.6291549,6.05035111 73.0579381,6.05035111 C73.0579381,5.35409183 73.0579381,4.66067441 73.0579381,3.967257 C72.3616788,3.98430825 71.6654195,3.95873138 70.9691603,3.94168013 C70.9720021,3.36477958 70.9720021,2.78503715 70.9776859,2.2081366 C71.6654195,2.20529472 72.3559951,2.20529472 73.0494125,2.20529472 C73.0550962,1.46924919 73.0636219,0.736045532 73.0579381,0 Z" id="Path"></path>
                    </g>
                </g>
                <text id=".design" font-family="MyriadPro-Semibold, Myriad Pro" font-size="18" font-weight="500" letter-spacing="-0.00384893617">
                    <tspan x="6" y="49">.design</tspan>
                </text>
            </g>
        </g>
    </g>
</svg>