<?xml version="1.0" encoding="UTF-8"?>
<svg width="292px" height="166px" viewBox="0 0 292 166" version="1.1" xmlns="http://www.w3.org/2000/svg" xmlns:xlink="http://www.w3.org/1999/xlink">
    <title>Group 2</title>
    <g id="Page-2" stroke="none" stroke-width="1" fill="none" fill-rule="evenodd">
        <g id="TDF-logo-final-2-Copy" transform="translate(-183.000000, -240.000000)" fill="#FFFFFF">
            <g id="Group-2" transform="translate(183.059700, 240.006400)">
                <polygon id="Fill-21" points="276.374 0.0003 283.365 0.0003 283.365 8.4363 291.8 8.4363 291.8 15.4273 283.365 15.4273 283.365 23.9083 276.374 23.9083 276.374 15.4273 267.938 15.4273 267.938 8.4363 276.374 8.4363"></polygon>
                <g id="Group-37" transform="translate(0.000000, -0.000000)">
                    <g id="Group" transform="translate(67.000000, 129.000000)">
                        <path d="M0,26.1642431 C0,25.5792447 0.214543363,25.073334 0.64363009,24.6427451 C1.07146218,24.2121561 1.58460975,24 2.18181818,24 C2.77777197,24 3.29091955,24.2121561 3.71875163,24.6427451 C4.14783836,25.073334 4.36363636,25.5842661 4.36363636,26.1793075 C4.36363636,26.7881578 4.14783836,27.3053667 3.71875163,27.7347003 C3.30095666,28.1552464 2.78906373,28.3636364 2.18181818,28.3636364 C1.56453552,28.3636364 1.04636939,28.1552464 0.627319776,27.7347003 C0.209524805,27.3191756 0,26.7931792 0,26.1642431" id="Fill-22"></path>
                        <path d="M13.6197146,19.8075324 C13.6197146,21.3486612 14.0332981,22.6032219 14.8591438,23.5751763 C15.7074524,24.5563748 16.7764271,25.0436726 18.0660677,25.0436726 C19.4429175,25.0436726 20.5568182,24.5695807 21.4051268,23.6200764 C22.2534355,22.6441602 22.6775899,21.3988436 22.6775899,19.889409 C22.6775899,18.3799744 22.2534355,17.1346579 21.4051268,16.1521388 C20.5568182,15.197352 19.4548097,14.7192984 18.0991015,14.7192984 C16.8213531,14.7192984 15.7523784,15.2026344 14.8921776,16.1732682 C14.0438689,17.1544667 13.6197146,18.3641274 13.6197146,19.8075324 L13.6197146,19.8075324 Z M22.4463531,0 L26.1818182,0 L26.1818182,27.9001092 L22.4463531,27.9001092 L22.4463531,26.2176773 C20.9809725,27.6465559 19.3226744,28.3636364 17.4714588,28.3636364 C15.2674419,28.3636364 13.4373679,27.5593969 11.9838795,25.9535592 C10.5396406,24.310745 9.81818182,22.2625096 9.81818182,19.8075324 C9.81818182,17.4040583 10.5396406,15.4007229 11.9838795,13.7948853 C13.4162262,12.1732005 15.2172304,11.3649993 17.3882135,11.3649993 C19.272463,11.3649993 20.9585095,12.1375445 22.4463531,13.6773527 L22.4463531,0 Z" id="Fill-24"></path>
                        <path d="M41.9274208,17.40759 C41.4193668,15.3720626 40.1920015,14.3536209 38.246621,14.3536209 C37.8046658,14.3536209 37.3873357,14.4214266 36.9985188,14.5624625 C36.6097019,14.7034984 36.2558785,14.9069155 35.9357526,15.17407 C35.6182188,15.4398683 35.344751,15.7571991 35.1179411,16.1341988 C34.8911313,16.504418 34.7174597,16.9315939 34.5995186,17.40759 L41.9274208,17.40759 Z M45.6730235,20.5293648 L34.35586,20.5293648 C34.4530642,21.885479 34.8742825,22.966302 35.620811,23.7636971 C36.3660433,24.5570239 37.3225329,24.9543653 38.4902796,24.9543653 C39.397519,24.9543653 40.1479356,24.7306065 40.7428254,24.2763083 C41.3273468,23.82201 41.9922237,22.9866437 42.737456,21.7661409 L45.8181818,23.5616361 C45.3425292,24.4119197 44.8409554,25.1374408 44.3108684,25.7422677 C43.7807813,26.3484507 43.2131087,26.8447885 42.6078504,27.2353494 C42.0038882,27.6272664 41.3480837,27.9147626 40.6469172,28.0924135 C39.9444547,28.2754889 39.1823736,28.3636364 38.3606739,28.3636364 C36.0044436,28.3636364 34.1122014,27.575734 32.6865395,25.9877243 C31.2595816,24.3956463 30.5454545,22.2828204 30.5454545,19.6465345 C30.5454545,17.0319464 31.2375486,14.9177644 32.6204407,13.2999202 C34.0162933,11.7078422 35.8631735,10.9090909 38.1662655,10.9090909 C40.4887984,10.9090909 42.3279022,11.6807199 43.6783929,13.2321145 C45.0185151,14.7713041 45.6885762,16.9004033 45.6885762,19.6261928 L45.6730235,20.5293648 Z" id="Fill-26"></path>
                        <path d="M58.9123533,14.1813944 L55.7004831,15.8616199 C55.1953071,14.8431781 54.5672878,14.3319231 53.8191856,14.3319231 C53.4616977,14.3319231 53.15804,14.4526172 52.9040718,14.6818005 C52.6501035,14.9177644 52.5244997,15.2093289 52.5244997,15.5741236 C52.5244997,16.2060728 53.2726018,16.8325976 54.7688061,17.4536979 C56.8281573,18.3256793 58.2167012,19.1284989 58.9302968,19.8648689 C59.6425121,20.6012389 60,21.58849 60,22.836115 C60,24.428193 59.4009662,25.7639655 58.2042788,26.839364 C57.0434783,27.8564497 55.636991,28.3636364 53.9917184,28.3636364 C51.1718427,28.3636364 49.1746032,27.0115905 48,24.3074989 L51.3153899,22.7981438 C51.7763975,23.5914706 52.1269841,24.094589 52.36853,24.3074989 C52.8405797,24.7400993 53.405107,24.9543653 54.0607315,24.9543653 C55.3733609,24.9543653 56.0289855,24.3658118 56.0289855,23.1914169 C56.0289855,22.5120037 55.5224293,21.8814106 54.510697,21.2901449 C54.1173223,21.0975767 53.7280883,20.9090768 53.3347136,20.7314258 C52.9440994,20.5483504 52.5465839,20.3625628 52.1449275,20.1686384 C51.0172533,19.6261928 50.2222222,19.082391 49.7612146,18.5399453 C49.1746032,17.8510393 48.8806073,16.9641407 48.8806073,15.8778932 C48.8806073,14.4417683 49.3816425,13.2565245 50.3837129,12.3180935 C51.4078675,11.3783064 52.6501035,10.9090909 54.1118012,10.9090909 C56.2663906,10.9090909 57.8647343,11.9994067 58.9123533,14.1813944" id="Fill-28"></path>
                        <path d="M63.7787424,27.2727273 L67.1303485,27.2727273 L67.1303485,11.2403405 L63.7787424,11.2403405 L63.7787424,27.2727273 Z M63.2727273,4.56917245 C63.2727273,3.92429726 63.4858489,3.36365067 63.9132829,2.89118089 C64.3407169,2.42134325 64.8514945,2.18181818 65.4468064,2.18181818 C66.0528339,2.18181818 66.5683741,2.42134325 66.995808,2.89118089 C67.423242,3.35312209 67.6363636,3.91903297 67.6363636,4.58759745 C67.6363636,5.25747801 67.423242,5.82996924 66.995808,6.30112295 C66.5790897,6.77096059 66.068312,7.00522137 65.4622845,7.00522137 C64.856257,7.00522137 64.3407169,6.77096059 63.9132829,6.30112295 C63.4858489,5.82996924 63.2727273,5.25221372 63.2727273,4.56917245 L63.2727273,4.56917245 Z" id="Fill-30"></path>
                        <path d="M83.6952092,19.3538514 C83.6952092,17.8020253 83.275493,16.564228 82.4360606,15.6378428 C81.5860359,14.6918307 80.4976866,14.2116282 79.1736607,14.2116282 C77.7609251,14.2116282 76.6447712,14.7310843 75.8278472,15.7686881 C75.0877167,16.6950734 74.7183135,17.8988508 74.7183135,19.3695529 C74.7183135,20.8193196 75.0877167,22.0126294 75.8278472,22.9403231 C76.634179,23.9530663 77.7490088,24.4607464 79.1736607,24.4607464 C80.5983126,24.4607464 81.7237346,23.9478325 82.5525749,22.9206963 C83.3138898,21.9943111 83.6952092,20.8049266 83.6952092,19.3538514 L83.6952092,19.3538514 Z M87.2727273,26.9127887 C87.2727273,27.669075 87.2475708,28.3337695 87.1985818,28.9029469 C87.1469448,29.4773581 87.0794195,29.9811128 86.9907098,30.4194448 C86.7259046,31.6179884 86.2068864,32.6503584 85.4336553,33.511321 C83.9759027,35.1730572 81.9726515,36 79.4212536,36 C77.2683874,36 75.4968407,35.4242804 74.1052895,34.2820002 C72.6687214,33.1030834 71.8412052,31.4714416 71.6200928,29.3870748 L75.3644381,29.3870748 C75.5074329,30.1734555 75.7457576,30.7766526 76.0767641,31.2058255 C76.8499952,32.196325 77.9754173,32.6948458 79.4543542,32.6948458 C82.1818476,32.6948458 83.5455943,31.0383434 83.5455943,27.7344977 L83.5455943,25.5088178 C82.0666573,27.0043805 80.3599879,27.7501991 78.4282341,27.7501991 C76.2303511,27.7501991 74.4309999,26.9638184 73.0288564,25.3923655 C71.6147967,23.8012857 70.9090909,21.8072022 70.9090909,19.4205825 C70.9090909,17.0928433 71.5658078,15.1196951 72.8792415,13.4932871 C74.2919771,11.7700535 76.1588537,10.9090909 78.4785471,10.9090909 C80.5096029,10.9090909 82.1990599,11.6536011 83.5455943,13.1504722 L83.5455943,11.3526567 L87.2727273,11.3526567 L87.2727273,26.9127887 Z" id="Fill-32"></path>
                        <path d="M92.7272727,11.3521284 L96.5470136,11.3521284 L96.5470136,12.8197719 C97.8779102,11.5468558 99.375,10.9090909 101.043688,10.9090909 C102.958287,10.9090909 104.452675,11.4919662 105.522797,12.6590237 C106.446993,13.6509573 106.909091,15.2702006 106.909091,17.5141399 L106.909091,27.2727273 L103.087999,27.2727273 L103.087999,18.3793046 C103.087999,16.8097233 102.863706,15.7289209 102.412417,15.1251352 C101.973289,14.516122 101.173399,14.2090016 100.012749,14.2090016 C98.7507622,14.2090016 97.8535892,14.6154461 97.3252841,15.4204936 C96.8064371,16.2163928 96.5470136,17.6043157 96.5470136,19.5921034 L96.5470136,27.2727273 L92.7272727,27.2727273 L92.7272727,11.3521284 Z" id="Fill-33"></path>
                    </g>
                    <g id="Group-3">
                        <polygon id="Fill-34" points="48.122739 22.3771625 48.122739 101.6393 21.7032739 101.6393 21.7032739 22.3771625 0 22.3771625 0 0.000280669979 69.8250773 0.000280669979 69.8250773 22.3771625"></polygon>
                        <path d="M107.97346,79.2630731 L114.038738,79.2630731 C118.622079,79.2630731 122.710505,78.5436224 126.306823,77.1047209 C129.898463,75.6686262 132.93157,73.6908384 135.405208,71.1741643 C137.875104,68.6593613 139.763077,65.6711616 141.065386,62.2105007 C142.36863,58.7526466 143.02072,54.9551818 143.02072,50.820913 C143.02072,46.7755231 142.347112,43.0014474 140.998961,39.4958794 C139.650809,35.993118 137.741318,32.9824647 135.269551,30.4667262 C132.797784,27.9509876 129.764677,25.9722642 126.171166,24.5342984 C122.574848,23.0982037 118.532265,22.3768818 114.038738,22.3768818 L107.97346,22.3768818 L107.97346,79.2630731 Z M83.5654632,0 L122.655307,0 C129.575693,0 136.06946,1.39586536 142.134739,4.17917598 C148.200017,6.96622887 153.502808,10.6738793 158.041242,15.3002561 C162.577804,19.9313107 166.149798,25.322981 168.757222,31.4762025 C171.361839,37.6341019 172.666955,44.0801557 172.666955,50.820913 C172.666955,57.4718559 171.385228,63.8748737 168.823647,70.0280952 C166.263937,76.1859945 162.71159,81.601054 158.175028,86.2704669 C153.636594,90.9445576 148.335674,94.6765327 142.270396,97.4598433 C136.202311,100.246896 129.666443,101.639019 122.655307,101.639019 L83.5654632,101.639019 L83.5654632,0 Z" id="Fill-35"></path>
                        <polygon id="Fill-36" points="245.736015 22.3771625 213.923009 22.3771625 213.923009 39.362374 245.850155 39.362374 245.850155 61.7392559 213.923009 61.7392559 213.923009 101.6393 187.502608 101.6393 187.502608 0.000280669979 245.736015 0.000280669979"></polygon>
                    </g>
                </g>
            </g>
        </g>
    </g>
</svg>