<?xml version="1.0" encoding="UTF-8"?>
<svg width="77px" height="53px" viewBox="0 0 77 53" version="1.1" xmlns="http://www.w3.org/2000/svg" xmlns:xlink="http://www.w3.org/1999/xlink">
    <title>logoo</title>
    <defs>
        <path d="M1.584,12.978 C2.574,12.978 3.222,12.276 3.222,11.322 C3.204,10.314 2.556,9.648 1.62,9.648 C0.666,9.648 0,10.332 0,11.322 C0,12.276 0.666,12.978 1.584,12.978 Z M8.136,12.978 C9.27,12.978 10.35,12.474 10.89,11.502 L10.944,11.502 L11.052,12.78 L13.482,12.78 C13.446,12.186 13.41,11.142 13.41,10.152 L13.41,0 L10.674,0 L10.674,4.752 L10.638,4.752 C10.242,4.158 9.414,3.762 8.316,3.762 C6.21,3.762 4.356,5.49 4.374,8.46 C4.374,11.196 6.048,12.978 8.136,12.978 Z M9.018,10.8 C7.884,10.8 7.146,9.864 7.146,8.37 C7.146,6.984 7.776,5.868 9.036,5.868 C9.882,5.868 10.476,6.48 10.638,7.2 C10.665,7.3215 10.67175,7.46325 10.6734375,7.58728125 L10.674,8.856 C10.674,9.072 10.656,9.288 10.62,9.486 C10.458,10.26 9.81,10.8 9.018,10.8 Z M19.8,12.96 C20.988,12.96 22.086,12.78 22.986,12.402 L22.626,10.548 C21.888,10.8 21.132,10.926 20.196,10.926 C18.918,10.926 17.784,10.386 17.712,9.252 L23.382,9.252 C23.418,9.054 23.472,8.64 23.472,8.172 C23.472,5.994 22.392,3.78 19.548,3.78 C16.488,3.78 15.102,6.246 15.102,8.478 C15.102,11.232 16.812,12.96 19.8,12.96 Z M20.934,7.38 L17.694,7.38 C17.766,6.66 18.234,5.598 19.386,5.598 C20.646,5.598 20.934,6.714 20.934,7.38 Z M27.45,12.978 C29.97,12.978 31.248,11.772 31.248,10.116 C31.23,8.838 30.546,7.974 28.872,7.398 C27.792,7.02 27.45,6.804 27.45,6.372 C27.45,5.94 27.828,5.67 28.494,5.67 C29.232,5.67 30.006,5.958 30.402,6.174 L30.87,4.284 C30.33,4.014 29.43,3.762 28.404,3.762 C26.226,3.762 24.822,5.004 24.822,6.66 C24.804,7.704 25.506,8.694 27.342,9.306 C28.35,9.648 28.62,9.864 28.62,10.332 C28.62,10.782 28.278,11.052 27.45,11.052 C26.64,11.052 25.596,10.71 25.092,10.404 L24.606,12.348 C25.272,12.708 26.298,12.978 27.45,12.978 Z M34.272,2.898 C35.19,2.898 35.748,2.286 35.748,1.53 C35.73,0.756 35.19,0.162 34.308,0.162 C33.426,0.162 32.85,0.756 32.85,1.53 C32.85,2.286 33.408,2.898 34.272,2.898 Z M35.658,12.78 L35.658,3.978 L32.922,3.978 L32.922,12.78 L35.658,12.78 Z M41.274,16.542 C42.57,16.542 43.884,16.29 44.838,15.462 C45.846,14.58 46.188,13.194 46.188,11.502 L46.188,6.606 C46.188,5.292 46.224,4.554 46.26,3.978 L43.884,3.978 L43.794,5.04 L43.758,5.04 C43.308,4.302 42.552,3.78 41.346,3.78 C39.168,3.78 37.35,5.58 37.35,8.424 C37.35,10.944 38.898,12.708 41.076,12.708 C42.084,12.708 42.93,12.294 43.452,11.574 L43.488,11.574 L43.488,12.132 C43.488,13.77 42.498,14.454 41.202,14.454 C40.158,14.454 39.204,14.112 38.646,13.788 L38.106,15.876 C38.898,16.308 40.104,16.542 41.274,16.542 Z M41.904,10.692 C40.77,10.692 40.122,9.666 40.122,8.352 C40.122,6.75 40.914,5.85 41.922,5.85 C42.678,5.85 43.2,6.336 43.398,7.056 C43.434,7.218 43.452,7.398 43.452,7.56 L43.452,8.856 C43.452,9.09 43.434,9.378 43.362,9.594 C43.182,10.224 42.624,10.692 41.904,10.692 Z M51.12,12.78 L51.12,7.704 C51.12,7.452 51.138,7.2 51.21,7.02 C51.408,6.516 51.858,5.994 52.614,5.994 C53.604,5.994 54,6.768 54,7.902 L54,12.78 L56.736,12.78 L56.736,7.578 C56.736,4.986 55.386,3.78 53.586,3.78 C52.11,3.78 51.228,4.626 50.868,5.202 L50.814,5.202 L50.688,3.978 L48.312,3.978 C48.348,4.77 48.384,5.688 48.384,6.786 L48.384,12.78 L51.12,12.78 Z" id="path-1"></path>
    </defs>
    <g id="Page-1" stroke="none" stroke-width="1" fill="none" fill-rule="evenodd">
        <g id="Artboard-Copy" transform="translate(-11.000000, -7.000000)" fill="#FFFFFF" fill-rule="nonzero">
            <g id="logoo" transform="translate(11.000000, 7.000000)">
                <g id="Group">
                    <path d="M0.00470857208,0 C6.29093528,0 12.5800039,0 18.8690724,0 C18.8690724,2.03194037 18.8690724,4.06388074 18.8690724,6.09582111 C16.9252302,6.09866298 14.9813879,6.09582111 13.0375457,6.09866298 C13.0318619,13.3255502 13.0403876,20.5552793 13.0347038,27.7821665 C10.6645804,27.7821665 8.2944569,27.7821665 5.92433345,27.7821665 C5.91580783,20.5552793 5.9413847,13.3312339 5.91012408,6.10434673 C3.94070495,6.08729548 1.97128582,6.09866298 0.00186669744,6.09866298 C-0.000975177208,4.06388074 -0.000975177208,2.03194037 0.00470857208,0 Z" id="Path"></path>
                    <path d="M22.6715007,0.00284187464 C26.1897415,-0.00284187464 29.7108242,0.00284187464 33.229065,1.77635684e-15 C36.6421565,0.039786245 39.9870429,1.46924919 42.411162,3.85926576 C45.4832285,6.75229415 47.103097,11.1003624 46.6398714,15.3006531 C46.0999153,21.8057041 40.370696,27.5519747 33.7775468,27.7338546 C30.0802679,27.8475296 26.3744634,27.7509059 22.6715007,27.7821665 C22.6715007,18.5233389 22.6715007,9.26166946 22.6715007,0.00284187464 M29.2277055,6.10434673 C29.2248636,11.2992936 29.2191799,16.4970823 29.2305474,21.6920291 C31.3733209,21.7716016 33.6667137,21.6749779 35.5082485,20.4330787 C39.9500985,17.5713109 39.8250561,10.0062406 35.3235266,7.25814784 C33.5189362,6.09582111 31.3051159,6.02193237 29.2277055,6.10434673 Z" id="Shape"></path>
                    <path d="M50.8060597,0 C56.0379509,0 61.2698421,0 66.5017333,0.00284187464 C66.5045752,2.03478224 66.5017333,4.06388074 66.5045752,6.09582111 C63.6456493,6.09866298 60.7867234,6.09297923 57.9249556,6.10150486 C57.9192719,7.66453591 57.9192719,9.22756696 57.9249556,10.790598 C60.7895653,10.790598 63.6513331,10.7877561 66.5159427,10.790598 C66.5159427,12.8054871 66.5159427,14.8203763 66.5131008,16.8324235 C63.6513331,16.8381073 60.7895653,16.8295816 57.9277975,16.8352654 C57.9135881,20.4842324 57.9277975,24.1331995 57.9221138,27.7821665 C55.5491484,27.7850084 53.179025,27.7821665 50.8089015,27.7821665 C50.8060597,18.5233389 50.8060597,9.26166946 50.8060597,0 Z" id="Path"></path>
                    <path d="M73.0579381,0 C73.6291549,0 74.2003717,0 74.7715885,0 C74.7630629,0.730361783 74.7744304,1.46072357 74.7857979,2.19108535 C75.5047922,2.20529472 76.2266283,2.21382035 76.9484645,2.20529472 C76.9513064,2.79356277 76.9513064,3.37898895 76.9484645,3.967257 C76.2209446,3.967257 75.4962666,3.967257 74.7715885,3.97009887 C74.7715885,4.66351629 74.7715885,5.3569337 74.7715885,6.05035111 C74.2003717,6.05035111 73.6291549,6.05035111 73.0579381,6.05035111 C73.0579381,5.35409183 73.0579381,4.66067441 73.0579381,3.967257 C72.3616788,3.98430825 71.6654195,3.95873138 70.9691603,3.94168013 C70.9720021,3.36477958 70.9720021,2.78503715 70.9776859,2.2081366 C71.6654195,2.20529472 72.3559951,2.20529472 73.0494125,2.20529472 C73.0550962,1.46924919 73.0636219,0.736045532 73.0579381,0 Z" id="Path"></path>
                </g>
                <g id=".design" transform="translate(6.900000, 36.220000)">
                    <use xlink:href="#path-1"></use>
                    <use xlink:href="#path-1"></use>
                </g>
            </g>
        </g>
    </g>
</svg>