<?xml version="1.0" encoding="UTF-8" ?>
<!DOCTYPE svg PUBLIC "-//W3C//DTD SVG 1.1//EN" "http://www.w3.org/Graphics/SVG/1.1/DTD/svg11.dtd">
<svg width="318pt" height="106pt" viewBox="0 0 318 106" version="1.1" xmlns="http://www.w3.org/2000/svg">
<g id="#0a0b09ff">
<path fill="#0a0b09" opacity="1.00" d=" M 65.42 8.08 C 68.38 8.13 71.35 8.11 74.30 8.31 C 74.11 19.43 74.28 30.55 74.21 41.67 C 71.26 41.69 68.31 41.69 65.37 41.68 C 65.38 37.07 65.41 32.46 65.35 27.85 C 61.29 27.85 57.23 27.85 53.17 27.85 C 53.03 32.47 53.17 37.09 53.04 41.71 C 49.97 41.70 46.89 41.69 43.82 41.62 C 43.83 30.50 43.84 19.37 43.82 8.24 C 46.91 8.14 50.00 8.13 53.09 8.16 C 53.11 12.38 53.10 16.60 53.09 20.83 C 57.19 20.84 61.29 20.84 65.39 20.83 C 65.39 16.58 65.35 12.33 65.42 8.08 Z" />
<path fill="#0a0b09" opacity="1.00" d=" M 188.09 7.98 C 193.27 5.68 198.94 7.74 203.81 9.87 C 202.59 12.18 201.41 14.52 200.25 16.86 C 197.31 14.73 192.66 13.34 190.27 17.01 C 192.06 20.74 196.70 20.51 199.87 22.39 C 207.04 25.59 206.49 37.38 199.69 40.74 C 193.47 44.10 185.76 42.55 180.01 38.90 C 181.13 36.40 182.43 33.99 183.84 31.65 C 186.47 33.49 189.49 35.53 192.89 34.74 C 195.34 34.64 196.71 31.05 194.46 29.69 C 190.63 27.45 185.35 27.39 182.71 23.38 C 179.52 18.03 182.14 10.13 188.09 7.98 Z" />
<path fill="#0a0b09" opacity="1.00" d=" M 234.40 8.67 C 242.75 4.65 253.89 7.98 257.98 16.48 C 255.17 17.77 252.30 18.95 249.37 19.93 C 247.85 17.29 245.43 14.48 242.01 15.13 C 234.79 14.94 231.96 24.44 234.78 30.00 C 236.78 36.11 248.11 36.74 249.04 29.69 C 246.79 29.67 244.53 29.66 242.28 29.66 C 242.29 27.31 242.29 24.97 242.30 22.63 C 248.08 22.64 253.86 22.62 259.65 22.64 C 259.66 27.04 259.33 31.75 256.62 35.42 C 250.41 44.52 235.32 45.06 228.34 36.60 C 221.36 28.18 223.63 12.81 234.40 8.67 Z" />
<path fill="#0a0b09" opacity="1.00" d=" M 264.71 8.34 C 268.34 8.53 273.45 6.47 275.60 10.46 C 280.11 16.31 284.67 22.13 289.42 27.80 C 289.54 21.23 289.43 14.66 289.50 8.09 C 292.53 8.19 295.57 8.19 298.61 8.06 C 298.73 19.27 298.63 30.47 298.66 41.68 C 295.07 41.11 289.97 43.40 287.78 39.50 C 283.16 33.46 278.31 27.59 273.72 21.52 C 273.66 28.23 273.68 34.94 273.71 41.65 C 270.70 41.73 267.69 41.74 264.68 41.50 C 264.85 30.45 264.80 19.39 264.71 8.34 Z" />
<path fill="#0a0b09" opacity="1.00" d=" M 17.00 8.14 C 24.83 8.20 32.65 8.08 40.48 8.21 C 40.45 10.69 40.44 13.17 40.44 15.65 C 38.10 15.65 35.76 15.65 33.42 15.65 C 33.40 24.33 33.41 33.00 33.42 41.67 C 30.35 41.70 27.28 41.70 24.21 41.67 C 24.24 33.00 24.23 24.33 24.22 15.65 C 21.81 15.65 19.41 15.66 17.00 15.66 C 17.00 13.16 17.00 10.65 17.00 8.14 Z" />
<path fill="#0a0b09" opacity="1.00" d=" M 80.81 8.22 C 87.34 8.10 93.88 8.14 100.41 8.20 C 100.40 10.67 100.40 13.15 100.40 15.63 C 96.98 15.66 93.55 15.66 90.13 15.66 C 90.12 17.38 90.12 19.10 90.11 20.83 C 93.30 20.83 96.49 20.83 99.68 20.82 C 99.73 23.39 99.75 25.95 99.75 28.52 C 96.55 28.54 93.34 28.54 90.14 28.48 C 90.13 30.33 90.13 32.18 90.12 34.04 C 93.55 34.10 96.98 34.09 100.41 34.12 C 100.40 36.64 100.40 39.15 100.41 41.66 C 93.87 41.69 87.34 41.75 80.81 41.62 C 80.82 30.49 80.82 19.35 80.81 8.22 Z" />
<path fill="#0a0b09" opacity="1.00" d=" M 121.50 8.18 C 129.19 8.62 137.99 6.33 144.52 11.64 C 153.35 17.95 152.95 32.93 143.70 38.67 C 137.21 43.32 128.91 41.25 121.50 41.68 C 121.52 30.51 121.52 19.34 121.50 8.18 M 130.39 15.56 C 130.36 21.76 130.37 27.97 130.39 34.17 C 133.26 33.95 136.53 33.92 138.70 31.72 C 141.85 29.26 142.09 24.67 140.97 21.14 C 139.35 16.94 134.58 15.31 130.39 15.56 Z" />
<path fill="#0a0b09" opacity="1.00" d=" M 156.25 8.16 C 162.69 8.16 169.13 8.11 175.57 8.20 C 175.55 10.67 175.55 13.15 175.56 15.63 C 172.15 15.66 168.75 15.66 165.34 15.65 C 165.33 17.37 165.32 19.10 165.31 20.83 C 168.58 20.82 171.85 20.83 175.12 20.87 C 175.13 23.39 175.14 25.91 175.14 28.43 C 171.87 28.54 168.59 28.55 165.31 28.53 C 165.32 30.38 165.33 32.23 165.35 34.09 C 168.75 34.08 172.16 34.08 175.57 34.14 C 175.55 36.64 175.55 39.15 175.57 41.65 C 169.13 41.72 162.68 41.69 156.24 41.67 C 156.27 30.50 156.26 19.33 156.25 8.16 Z" />
<path fill="#0a0b09" opacity="1.00" d=" M 210.30 8.16 C 213.32 8.13 216.35 8.14 219.38 8.25 C 219.36 19.37 219.40 30.49 219.36 41.61 C 216.33 41.70 213.31 41.71 210.28 41.68 C 210.31 30.51 210.29 19.33 210.30 8.16 Z" />
<path fill="#0a0b09" opacity="1.00" d=" M 20.46 60.89 C 26.90 60.88 33.34 60.89 39.78 60.89 C 39.80 63.44 39.81 66.00 39.83 68.55 C 36.32 68.56 32.81 68.56 29.30 68.57 C 29.30 70.30 29.31 72.02 29.31 73.75 C 32.55 73.75 35.79 73.76 39.03 73.78 C 39.03 76.29 39.03 78.81 39.03 81.33 C 35.79 81.34 32.54 81.35 29.30 81.36 C 29.32 85.91 29.32 90.45 29.32 95.00 C 26.34 95.02 23.35 95.02 20.38 94.93 C 20.54 83.58 20.39 72.24 20.46 60.89 Z" />
<path fill="#0a0b09" opacity="1.00" d=" M 44.83 60.90 C 47.78 60.88 50.72 60.88 53.67 60.89 C 53.70 72.26 53.65 83.63 53.69 95.00 C 50.73 95.00 47.78 95.00 44.83 95.00 C 44.83 83.63 44.82 72.26 44.83 60.90 Z" />
<path fill="#0a0b09" opacity="1.00" d=" M 60.42 60.89 C 66.45 61.13 72.62 60.22 78.54 61.69 C 85.30 63.50 87.51 73.08 83.00 78.11 C 81.78 79.59 79.89 80.20 78.23 81.02 C 81.79 85.66 85.47 90.22 88.93 94.94 C 85.19 95.03 81.45 95.00 77.71 95.01 C 75.02 90.81 72.30 86.62 69.60 82.43 C 69.53 86.61 69.54 90.79 69.58 94.97 C 66.52 95.02 63.46 95.01 60.40 94.99 C 60.43 83.63 60.39 72.26 60.42 60.89 M 69.54 67.89 C 69.55 70.54 69.55 73.20 69.56 75.86 C 72.15 75.96 76.19 75.58 75.93 72.07 C 76.35 68.45 72.25 67.83 69.54 67.89 Z" />
<path fill="#0a0b09" opacity="1.00" d=" M 95.96 60.95 C 98.89 61.05 102.01 60.42 104.81 61.18 C 107.29 66.66 109.17 72.42 111.30 78.05 C 114.08 72.58 115.83 66.65 118.01 60.93 C 120.93 61.05 124.00 60.44 126.83 61.17 C 129.04 72.39 130.67 83.74 132.73 95.00 C 129.72 95.00 126.71 95.00 123.71 95.00 C 122.81 88.72 121.82 82.45 120.95 76.17 C 117.98 82.27 115.51 88.61 113.14 94.97 C 112.29 95.00 110.60 95.04 109.75 95.07 C 106.97 88.80 104.85 82.27 102.04 76.02 C 101.13 82.35 100.19 88.68 99.24 95.01 C 96.25 95.00 93.26 95.00 90.28 95.00 C 92.06 83.63 94.29 72.34 95.96 60.95 Z" />
<path fill="#0a0b09" opacity="1.00" d=" M 141.77 60.88 C 143.36 60.89 144.95 60.90 146.54 60.91 C 146.54 62.75 146.54 64.59 146.55 66.43 C 148.42 66.46 150.30 66.48 152.18 66.51 C 152.18 68.13 152.18 69.75 152.18 71.37 C 150.29 71.40 148.40 71.42 146.52 71.45 C 146.54 73.24 146.57 75.03 146.60 76.82 C 144.98 76.95 143.36 76.99 141.75 76.96 C 141.76 75.12 141.79 73.28 141.81 71.44 C 139.96 71.43 138.11 71.41 136.26 71.40 C 136.27 69.75 136.29 68.10 136.30 66.45 C 138.13 66.45 139.96 66.44 141.79 66.44 C 141.78 64.58 141.78 62.73 141.77 60.88 Z" />
</g>
</svg>
